<svg xmlns="http://www.w3.org/2000/svg" viewBox="0 0 120 120"><circle cx="60" cy="60" r="60" fill="#1a2744"/><circle cx="60" cy="40" r="17" fill="#f0c8a0"/><path d="M44 32c2-8 8-12 16-12s14 4 16 12" fill="#2d1515"/><path d="M42 40c-2 4-2 12 0 16" stroke="#2d1515" stroke-width="4" fill="none"/><path d="M78 40c2 4 2 12 0 16" stroke="#2d1515" stroke-width="4" fill="none"/><circle cx="53" cy="40" r="2" fill="#2d2d44"/><circle cx="67" cy="40" r="2" fill="#2d2d44"/><path d="M56 46q4 3 8 0" stroke="#c97878" stroke-width="1.5" fill="none" stroke-linecap="round"/><rect x="48" y="57" width="24" height="26" rx="5" fill="#444"/><path d="M56 60l4 6 4-6z" fill="#555"/><path d="M48 63l-10 8v4l10-4z" fill="#f0c8a0"/><path d="M72 63l10 8v4l-10-4z" fill="#f0c8a0"/><rect x="48" y="83" width="10" height="22" rx="4" fill="#2d2d44"/><rect x="62" y="83" width="10" height="22" rx="4" fill="#2d2d44"/><rect x="44" y="102" width="14" height="6" rx="3" fill="#333"/><rect x="62" y="102" width="14" height="6" rx="3" fill="#333"/></svg>
