<svg xmlns="http://www.w3.org/2000/svg" viewBox="0 0 120 120"><circle cx="60" cy="60" r="60" fill="#0f3460"/><circle cx="60" cy="40" r="17" fill="#d4a574"/><path d="M42 36c0-10 8-18 18-18s18 8 18 18c0-4-6-12-18-12S42 32 42 36z" fill="#2d1515"/><path d="M76 40c0 8-2 14-4 16l6-2c2-4 2-10 0-14z" fill="#2d1515"/><circle cx="53" cy="40" r="2" fill="#2d2d44"/><circle cx="67" cy="40" r="2" fill="#2d2d44"/><path d="M56 46q4 3 8 0" stroke="#c97878" stroke-width="1.5" fill="none" stroke-linecap="round"/><rect x="48" y="57" width="24" height="26" rx="5" fill="#e94560"/><path d="M48 63l-10 8v4l10-4z" fill="#d4a574"/><path d="M72 63l10 8v4l-10-4z" fill="#d4a574"/><circle cx="36" cy="74" r="5" fill="#e94560"/><circle cx="84" cy="74" r="5" fill="#e94560"/><rect x="48" y="83" width="10" height="22" rx="4" fill="#2d2d44"/><rect x="62" y="83" width="10" height="22" rx="4" fill="#2d2d44"/></svg>
