<svg xmlns="http://www.w3.org/2000/svg" viewBox="0 0 120 120"><circle cx="60" cy="60" r="60" fill="#0a2647"/><circle cx="60" cy="40" r="17" fill="#f0c8a0"/><path d="M44 32c2-8 8-12 16-12s14 4 16 12" fill="#c4944a"/><rect x="42" y="24" width="36" height="6" rx="3" fill="#c4944a"/><circle cx="53" cy="40" r="2" fill="#2d2d44"/><circle cx="67" cy="40" r="2" fill="#2d2d44"/><path d="M56 46q4 3 8 0" stroke="#c97878" stroke-width="1.5" fill="none" stroke-linecap="round"/><rect x="48" y="57" width="24" height="24" rx="5" fill="#00e60a"/><rect x="48" y="81" width="24" height="10" rx="3" fill="#2d2d44"/><path d="M48 63l-12 4v8l12-3z" fill="#f0c8a0"/><path d="M72 63l12 4v8l-12-3z" fill="#f0c8a0"/><rect x="47" y="91" width="11" height="18" rx="4" fill="#2d2d44"/><rect x="62" y="91" width="11" height="18" rx="4" fill="#2d2d44"/><rect x="44" y="106" width="14" height="5" rx="2" fill="#fff"/><rect x="62" y="106" width="14" height="5" rx="2" fill="#fff"/></svg>
