<svg xmlns="http://www.w3.org/2000/svg" viewBox="0 0 120 120"><circle cx="60" cy="60" r="60" fill="#2d1b4e"/><circle cx="60" cy="40" r="17" fill="#f0c8a0"/><path d="M42 34c0-6 4-14 18-14s18 8 18 14c0-2-6-10-18-10S42 32 42 34z" fill="#2d1515"/><path d="M42 34c-2 4-2 10 0 14" stroke="#2d1515" stroke-width="4" fill="none"/><path d="M78 34c2 4 2 10 0 14" stroke="#2d1515" stroke-width="4" fill="none"/><circle cx="53" cy="40" r="2" fill="#2d2d44"/><circle cx="67" cy="40" r="2" fill="#2d2d44"/><path d="M56 46q4 3 8 0" stroke="#c97878" stroke-width="1.5" fill="none" stroke-linecap="round"/><rect x="48" y="57" width="24" height="26" rx="5" fill="#e94560"/><path d="M48 63l-10 6v6l10-3z" fill="#f0c8a0"/><path d="M72 63l10 6v6l-10-3z" fill="#f0c8a0"/><rect x="48" y="83" width="10" height="22" rx="4" fill="#1a1a2e"/><rect x="62" y="83" width="10" height="22" rx="4" fill="#1a1a2e"/><rect x="26" y="65" width="8" height="4" rx="2" fill="#555"/><rect x="86" y="65" width="8" height="4" rx="2" fill="#555"/></svg>
