<svg xmlns="http://www.w3.org/2000/svg" viewBox="0 0 120 120"><circle cx="60" cy="60" r="60" fill="#1a3a4a"/><circle cx="60" cy="40" r="17" fill="#d4a574"/><path d="M43 32c2-8 8-12 17-12s15 4 17 12c-3-6-10-8-17-8s-14 2-17 8z" fill="#1a0a00"/><path d="M43 32c-2 6-2 14 0 20" stroke="#1a0a00" stroke-width="3" fill="none"/><path d="M77 32c2 6 2 14 0 20" stroke="#1a0a00" stroke-width="3" fill="none"/><circle cx="53" cy="40" r="2" fill="#2d2d44"/><circle cx="67" cy="40" r="2" fill="#2d2d44"/><path d="M56 46q4 3 8 0" stroke="#c97878" stroke-width="1.5" fill="none" stroke-linecap="round"/><rect x="48" y="57" width="24" height="24" rx="5" fill="#00e60a"/><line x1="60" y1="60" x2="60" y2="78" stroke="#1a1a2e" stroke-width="1.2"/><line x1="52" y1="69" x2="68" y2="69" stroke="#1a1a2e" stroke-width="1.2"/><path d="M48 81h24v10c0 0-5 4-12 4s-12-4-12-4z" fill="#1a1a2e"/><path d="M48 63l-14 4v6l14-3z" fill="#d4a574"/><path d="M72 63l14 4v6l-14-3z" fill="#d4a574"/><rect x="47" y="91" width="11" height="18" rx="4" fill="#1a1a2e"/><rect x="62" y="91" width="11" height="18" rx="4" fill="#1a1a2e"/></svg>
