<svg xmlns="http://www.w3.org/2000/svg" viewBox="0 0 120 120"><circle cx="60" cy="60" r="60" fill="#1a2744"/><circle cx="60" cy="40" r="17" fill="#f0c8a0"/><path d="M43 32c0-8 7-14 17-14s17 6 17 14" fill="#c4944a"/><path d="M44 38h-2c0-2 1 6 2 8z" fill="#c4944a"/><path d="M76 38h2c0-2-1 6-2 8z" fill="#c4944a"/><ellipse cx="60" cy="26" rx="12" ry="3" fill="#c4944a"/><circle cx="53" cy="40" r="2" fill="#2d2d44"/><circle cx="67" cy="40" r="2" fill="#2d2d44"/><path d="M56 46q4 3 8 0" stroke="#c97878" stroke-width="1.5" fill="none" stroke-linecap="round"/><rect x="48" y="57" width="24" height="24" rx="5" fill="#00e60a"/><rect x="50" y="59" width="20" height="10" rx="3" fill="#33cc2e" opacity="0.4"/><path d="M48 81h24v10c0 0-5 4-12 4s-12-4-12-4z" fill="#2d2d44"/><path d="M48 63l-12 6v6l12-3z" fill="#f0c8a0"/><path d="M72 63l12 6v6l-12-3z" fill="#f0c8a0"/><rect x="47" y="91" width="11" height="18" rx="4" fill="#2d2d44"/><rect x="62" y="91" width="11" height="18" rx="4" fill="#2d2d44"/></svg>
