<svg xmlns="http://www.w3.org/2000/svg" viewBox="0 0 120 120"><circle cx="60" cy="60" r="60" fill="#2d1b69"/><circle cx="60" cy="40" r="17" fill="#f0c8a0"/><path d="M44 30c2-6 8-10 16-10s14 4 16 10" fill="#c4944a"/><path d="M42 38c-2 2-2 8 0 12" stroke="#c4944a" stroke-width="4" fill="none"/><path d="M78 38c2 2 2 8 0 12" stroke="#c4944a" stroke-width="4" fill="none"/><circle cx="53" cy="40" r="2" fill="#2d2d44"/><circle cx="67" cy="40" r="2" fill="#2d2d44"/><path d="M56 46q4 3 8 0" stroke="#c97878" stroke-width="1.5" fill="none" stroke-linecap="round"/><path d="M48 57h24c3 0 5 2 5 5v22c0 3-2 5-5 5H48c-3 0-5-2-5-5V62c0-3 2-5 5-5z" fill="#1a1a2e"/><text x="60" y="76" text-anchor="middle" font-size="9" font-weight="bold" fill="#00e60a" font-family="sans-serif">FIT</text><path d="M43 63l-12 8v4l12-4z" fill="#f0c8a0"/><path d="M77 63l12 8v4l-12-4z" fill="#f0c8a0"/><rect x="47" y="89" width="11" height="18" rx="4" fill="#333"/><rect x="62" y="89" width="11" height="18" rx="4" fill="#333"/></svg>
