<svg xmlns="http://www.w3.org/2000/svg" viewBox="0 0 120 120"><circle cx="60" cy="60" r="60" fill="#1b4332"/><circle cx="60" cy="40" r="17" fill="#d4a574"/><path d="M44 30c4-6 10-8 16-8s12 2 16 8c-2-2-8-5-16-5s-14 3-16 5z" fill="#1a0a00"/><path d="M44 30c-3 6-4 16 0 22" stroke="#1a0a00" stroke-width="3" fill="none"/><path d="M76 30c3 6 4 16 0 22" stroke="#1a0a00" stroke-width="3" fill="none"/><circle cx="53" cy="40" r="2" fill="#2d2d44"/><circle cx="67" cy="40" r="2" fill="#2d2d44"/><path d="M56 46q4 3 8 0" stroke="#2d2d44" stroke-width="1.5" fill="none" stroke-linecap="round"/><path d="M48 57h24c3 0 5 2 5 5v8c0 0-6 4-17 4s-17-4-17-4v-8c0-3 2-5 5-5z" fill="#00e60a"/><path d="M43 70h34v16c0 3-6 6-17 6s-17-3-17-6z" fill="#1a1a2e"/><path d="M48 63l-12 6v6l12-3z" fill="#d4a574"/><path d="M72 63l12 6v6l-12-3z" fill="#d4a574"/><rect x="47" y="89" width="11" height="20" rx="4" fill="#1a1a2e"/><rect x="62" y="89" width="11" height="20" rx="4" fill="#1a1a2e"/><rect x="44" y="106" width="14" height="5" rx="2" fill="#e94560"/><rect x="62" y="106" width="14" height="5" rx="2" fill="#e94560"/></svg>
