<svg xmlns="http://www.w3.org/2000/svg" viewBox="0 0 120 120"><circle cx="60" cy="60" r="60" fill="#2d1b36"/><circle cx="60" cy="40" r="17" fill="#d4a574"/><path d="M44 30c4-6 10-8 16-8s12 2 16 8c-2-2-8-5-16-5s-14 3-16 5z" fill="#4a2c0a"/><path d="M43 36c-3 4-3 12 0 18" stroke="#4a2c0a" stroke-width="3" fill="none"/><path d="M77 36c3 4 3 12 0 18" stroke="#4a2c0a" stroke-width="3" fill="none"/><circle cx="53" cy="40" r="2" fill="#2d2d44"/><circle cx="67" cy="40" r="2" fill="#2d2d44"/><path d="M56 46q4 3 8 0" stroke="#c97878" stroke-width="1.5" fill="none" stroke-linecap="round"/><path d="M48 57h24c3 0 5 2 5 5v8l-34 0v-8c0-3 2-5 5-5z" fill="#e94560"/><path d="M43 70h34v18c0 3-2 5-5 5H48c-3 0-5-2-5-5z" fill="#1a1a2e"/><path d="M43 63l-12 8v4l12-4z" fill="#d4a574"/><path d="M77 63l12 8v4l-12-4z" fill="#d4a574"/><rect x="47" y="93" width="11" height="16" rx="4" fill="#1a1a2e"/><rect x="62" y="93" width="11" height="16" rx="4" fill="#1a1a2e"/></svg>
