<svg xmlns="http://www.w3.org/2000/svg" viewBox="0 0 120 120"><circle cx="60" cy="60" r="60" fill="#2d1b36"/><circle cx="60" cy="40" r="17" fill="#f0c8a0"/><path d="M44 40c0-12 7-20 16-20s16 8 16 20" fill="#4a2c0a" opacity="0.8"/><path d="M48 36c-4 1-6 4-6 6" stroke="#4a2c0a" stroke-width="3" stroke-linecap="round" fill="none"/><path d="M72 36c4 1 6 4 6 6" stroke="#4a2c0a" stroke-width="3" stroke-linecap="round" fill="none"/><circle cx="53" cy="40" r="2" fill="#2d2d44"/><circle cx="67" cy="40" r="2" fill="#2d2d44"/><path d="M56 46q4 3 8 0" stroke="#2d2d44" stroke-width="1.5" fill="none" stroke-linecap="round"/><path d="M48 57h24c3 0 5 2 5 5v6l-34 0v-6c0-3 2-5 5-5z" fill="#00e60a"/><path d="M43 68h34v18c0 3-2 5-5 5H48c-3 0-5-2-5-5z" fill="#1a1a2e"/><path d="M43 63l-14 6v6l14-3z" fill="#f0c8a0"/><path d="M77 63l14 6v6l-14-3z" fill="#f0c8a0"/><rect x="47" y="91" width="11" height="18" rx="4" fill="#1a1a2e"/><rect x="62" y="91" width="11" height="18" rx="4" fill="#1a1a2e"/></svg>
