<svg xmlns="http://www.w3.org/2000/svg" viewBox="0 0 120 120"><circle cx="60" cy="60" r="60" fill="#0f3460"/><circle cx="60" cy="40" r="17" fill="#d4a574"/><rect x="44" y="24" width="32" height="10" rx="3" fill="#2d2d44"/><circle cx="53" cy="39" r="2" fill="#1a1a2e"/><circle cx="67" cy="39" r="2" fill="#1a1a2e"/><path d="M55 46q5 4 10 0" stroke="#1a1a2e" stroke-width="1.5" fill="none" stroke-linecap="round"/><rect x="46" y="57" width="28" height="30" rx="5" fill="#e94560"/><path d="M46 62l-14 6v8l14-4z" fill="#d4a574"/><path d="M74 62l14 6v8l-14-4z" fill="#d4a574"/><circle cx="30" cy="76" r="5" fill="#d4a574"/><circle cx="90" cy="76" r="5" fill="#d4a574"/><rect x="47" y="87" width="11" height="22" rx="4" fill="#2d2d44"/><rect x="62" y="87" width="11" height="22" rx="4" fill="#2d2d44"/><rect x="25" y="70" width="4" height="16" rx="2" fill="#555" transform="rotate(-10 27 78)"/><rect x="91" y="70" width="4" height="16" rx="2" fill="#555" transform="rotate(10 93 78)"/></svg>
