<svg xmlns="http://www.w3.org/2000/svg" viewBox="0 0 120 120"><circle cx="60" cy="60" r="60" fill="#0a2647"/><circle cx="60" cy="40" r="17" fill="#d4a574"/><rect x="42" y="26" width="36" height="8" rx="4" fill="#fff"/><rect x="44" y="28" width="6" height="4" rx="1" fill="#0a2647"/><rect x="70" y="28" width="6" height="4" rx="1" fill="#0a2647"/><circle cx="53" cy="40" r="2" fill="#2d2d44"/><circle cx="67" cy="40" r="2" fill="#2d2d44"/><path d="M56 46q4 3 8 0" stroke="#2d2d44" stroke-width="1.5" fill="none" stroke-linecap="round"/><rect x="46" y="57" width="28" height="28" rx="5" fill="#00e60a"/><path d="M46 63l-16 4v8l16-3z" fill="#d4a574"/><path d="M74 63l16 4v8l-16-3z" fill="#d4a574"/><rect x="47" y="85" width="11" height="22" rx="4" fill="#2d2d44"/><rect x="62" y="85" width="11" height="22" rx="4" fill="#2d2d44"/><rect x="43" y="105" width="16" height="5" rx="2" fill="#fff"/><rect x="61" y="105" width="16" height="5" rx="2" fill="#fff"/></svg>
