<svg xmlns="http://www.w3.org/2000/svg" viewBox="0 0 120 120"><circle cx="60" cy="60" r="60" fill="#1a3a4a"/><circle cx="60" cy="40" r="17" fill="#d4a574"/><path d="M43 34c2-8 8-12 17-12s15 4 17 12c-3-6-10-8-17-8s-14 2-17 8z" fill="#4a3520"/><circle cx="53" cy="40" r="2" fill="#2d2d44"/><circle cx="67" cy="40" r="2" fill="#2d2d44"/><path d="M56 46q4 3 8 0" stroke="#2d2d44" stroke-width="1.5" fill="none" stroke-linecap="round"/><rect x="46" y="57" width="28" height="28" rx="5" fill="#00e60a"/><line x1="60" y1="60" x2="60" y2="82" stroke="#1a1a2e" stroke-width="1.5"/><line x1="50" y1="71" x2="70" y2="71" stroke="#1a1a2e" stroke-width="1.5"/><path d="M46 63l-18 0v6h18z" fill="#d4a574"/><path d="M74 63l18 0v6H74z" fill="#d4a574"/><circle cx="26" cy="66" r="4" fill="#d4a574"/><circle cx="94" cy="66" r="4" fill="#d4a574"/><rect x="47" y="85" width="11" height="22" rx="4" fill="#2d2d44"/><rect x="62" y="85" width="11" height="22" rx="4" fill="#2d2d44"/></svg>
