<svg xmlns="http://www.w3.org/2000/svg" viewBox="0 0 120 120"><circle cx="60" cy="60" r="60" fill="#2d1b69"/><circle cx="60" cy="40" r="17" fill="#f0c8a0"/><path d="M43 32h34v6c0 2-4 4-17 4s-17-2-17-4z" fill="#c4944a"/><circle cx="53" cy="40" r="2" fill="#2d2d44"/><circle cx="67" cy="40" r="2" fill="#2d2d44"/><path d="M56 46q4 4 8 0" stroke="#2d2d44" stroke-width="1.5" fill="none" stroke-linecap="round"/><path d="M48 57h24c3 0 5 2 5 5v22c0 3-2 5-5 5H48c-3 0-5-2-5-5V62c0-3 2-5 5-5z" fill="#1a1a2e"/><text x="60" y="76" text-anchor="middle" font-size="10" font-weight="bold" fill="#00e60a" font-family="sans-serif">GYM</text><path d="M43 63l-12 8v6l12-4z" fill="#f0c8a0"/><path d="M77 63l12 8v6l-12-4z" fill="#f0c8a0"/><rect x="47" y="89" width="11" height="20" rx="4" fill="#333"/><rect x="62" y="89" width="11" height="20" rx="4" fill="#333"/></svg>
