<svg xmlns="http://www.w3.org/2000/svg" viewBox="0 0 120 120"><circle cx="60" cy="60" r="60" fill="#1b4332"/><circle cx="60" cy="40" r="17" fill="#8d6e4e"/><path d="M43 35c0-8 8-16 17-16s17 8 17 16" fill="#1a1a1a"/><circle cx="53" cy="40" r="2" fill="#1a1a2e"/><circle cx="67" cy="40" r="2" fill="#1a1a2e"/><path d="M56 47q4 3 8 0" stroke="#1a1a2e" stroke-width="1.5" fill="none" stroke-linecap="round"/><rect x="44" y="57" width="32" height="32" rx="5" fill="#00e60a"/><ellipse cx="60" cy="62" rx="8" ry="5" fill="#33cc2e" opacity="0.5"/><path d="M44 62l-16 4v10l16-2z" fill="#8d6e4e"/><path d="M76 62l16 4v10l-16-2z" fill="#8d6e4e"/><rect x="47" y="89" width="11" height="20" rx="4" fill="#2d2d44"/><rect x="62" y="89" width="11" height="20" rx="4" fill="#2d2d44"/><rect x="44" y="105" width="14" height="6" rx="3" fill="#333"/><rect x="62" y="105" width="14" height="6" rx="3" fill="#333"/></svg>
