<svg xmlns="http://www.w3.org/2000/svg" viewBox="0 0 120 120"><circle cx="60" cy="60" r="60" fill="#1a2744"/><circle cx="60" cy="40" r="17" fill="#d4a574"/><path d="M43 36c0-10 7-16 17-16s17 6 17 16c0-4-3-10-17-10S43 32 43 36z" fill="#222"/><circle cx="53" cy="40" r="2" fill="#2d2d44"/><circle cx="67" cy="40" r="2" fill="#2d2d44"/><path d="M55 46q5 4 10 0" stroke="#2d2d44" stroke-width="1.5" fill="none" stroke-linecap="round"/><path d="M45 57h30l3 30H42z" fill="#444"/><rect x="48" y="60" width="24" height="3" rx="1" fill="#222"/><path d="M45 63l-14 10v4l14-4z" fill="#d4a574"/><path d="M75 63l14 10v4l-14-4z" fill="#d4a574"/><rect x="47" y="87" width="11" height="22" rx="4" fill="#222"/><rect x="62" y="87" width="11" height="22" rx="4" fill="#222"/><ellipse cx="60" cy="72" rx="4" ry="5" fill="#555"/></svg>
